<?xml version="1.0" encoding="UTF-8"?><svg id="Layer_1" xmlns="http://www.w3.org/2000/svg" viewBox="0 0 1800 1470"><path d="M410.38,614.61l-13.46,18.95c-39.34-3.45-69.18-2.94-89.5,1.54l-4.21.93c-25.97,7.2-45.09,12.14-57.36,14.85l-42.05,9.27c-.71.16-12.12,6.72-34.25,19.67-14.84,4.37-36.24,13.14-64.21,26.28-42.4,31.03-62.4,73.65-60.01,127.87.7,21.53,2.79,40.17,6.26,55.94.93,4.21,2.03,8.37,3.3,12.5,11.37,38.28,17.84,60.93,19.38,67.93-7.6,3.88-20.1,8.84-37.5,14.88-13.99-16.76-21.79-28.82-23.41-36.18-.85-3.85-2.18-14.03-3.97-30.54-2.5-16.35-4.37-27.33-5.61-32.94-6.49-29.44-4.68-82.92,5.42-160.48,4.74-20.15,14.07-37.83,28-53.02,30.34-32.4,93.68-59.23,190.05-80.47,96.79-20.96,156.2-20.65,178.23.95l4.87,22.08ZM451.1,848.05c-4.31,58.13-6.46,91.86-6.46,101.19-17.22,9.69-32.66,14.53-46.29,14.53-5.74-16.5-8.61-36.96-8.61-61.36,0-135.64,16.86-207.58,50.59-215.83,11.84,5.38,18.3,14.53,19.38,27.45-.36-4.66-.9-7.17-1.62-7.54.35,3.95.54,8.8.54,14.53,0,25.48-2.51,67.82-7.54,127.03ZM626.15,59.42l-30.68,680.34c-1.8,1.44-2.69,5.74-2.69,12.92s.89,17.05,2.69,29.6c3.95,33.73,13.27,97.61,27.99,191.61-.72,3.23-6.82,6.81-18.3,10.76-2.15.35-4.13.54-5.92.54-37.68,0-62.08-43.41-73.2-130.25-.36-1.79-.54-5.38-.54-10.76,0-16.86.89-51.49,2.69-103.88,2.51-67.46,5.56-137.97,9.15-211.53,1.08-27.99,5.2-80.01,12.38-156.09,6.81-69.61,10.23-121.28,10.23-155.01,0-102.98,6.81-174.93,20.45-215.84l8.07-.54h2.69c12.19,0,20.45,6.82,24.76,20.45,3.23,8.97,6.64,21.53,10.23,37.68ZM744.94,824.78c-4.31,58.13-6.46,91.86-6.46,101.19-17.22,9.69-32.66,14.53-46.29,14.53-5.74-16.5-8.61-36.96-8.61-61.36,0-135.64,16.86-207.58,50.59-215.83,11.84,5.38,18.3,14.53,19.38,27.45-.36-4.66-.9-7.17-1.62-7.54.35,3.95.54,8.8.54,14.53,0,25.48-2.51,67.82-7.54,127.03ZM1377.37,692.29c-82.17,0-152.86,13.64-212.07,40.91-14.36,6.46-23.14,15.61-26.37,27.45-.72,16.87-3.59,47.55-8.61,92.04-1.8,16.51-2.69,33.56-2.69,51.13,0,3.59.81,15.52,2.42,35.79,1.61,20.28,2.42,32.02,2.42,35.26,0,28.35-7,51.86-20.99,70.51-2.88-.72-10.76-3.77-23.68-9.15-13.99-36.24-20.99-78.4-20.99-126.49,0-11.84,1.97-35.52,5.92-71.05,3.58-34.8,5.38-58.31,5.38-70.51,0-10.76-3.77-18.84-11.3-24.22-6.46,2.51-29.43,5.74-68.9,9.69-6.82,1.44-27.27,4.67-61.36,9.69-6.1.72-17.22,1.98-33.37,3.77-3.59.36-12.38,6.11-26.37,17.22-3.59,3.23-5.38,10.23-5.38,20.99v3.77h-23.68c-5.38,0-16.6-7.44-33.64-22.34-17.05-14.88-25.57-24.49-25.57-28.8,0-22.25,39.47-38.75,118.41-49.52,96.52-13.27,154.11-24.94,172.78-34.98,10.76-6.46,22.6-77.32,35.52-212.61,6.46-66.74,19.73-152.32,39.83-256.74,1.79-8.97,4.66-22.78,8.61-41.45,1.43-3.95,13.99-11.66,37.68-23.14l9.15,66.2c-1.8,8.97-5.21,27.81-10.23,56.52l-22.61,138.33c-2.51,11.49-5.38,33.56-8.61,66.2l-9.15,192.15,217.45-2.15v35.52ZM1800,674.26c0,3.95-2.34,14.18-7,30.68-5.03,17.22-7.54,26.74-7.54,28.53v3.77c0,9.34-.72,22.25-2.15,38.75-17.95,42.35-41.45,106.22-70.51,191.61-9.69,10.4-28.71,45.93-57.06,106.57.72-.36,1.08-.72,1.08-1.08v.54c0,1.08-10.23,29.24-30.68,84.51-11.13,29.78-26.37,68.17-45.75,115.18-2.51,12.2-6.46,32.83-11.84,61.9-.72,5.02-5.38,18.3-14,39.83-7.18,17.58-10.76,30.86-10.76,39.83,0,3.23.72,6.1,2.15,8.61-6.82,11.48-19.56,26.55-38.21,45.21h-23.68c-10.76-20.1-16.15-34.81-16.15-44.14,0-35.52,23.68-114.11,71.05-235.75,18.65-48.09,41.62-103.53,68.9-166.32,8.96-16.15,23.5-45.94,43.6-89.35,6.81-21.17,14-39.83,21.53-55.98,6.81-10.4,18.48-39.47,34.99-87.19-1.08-1.08-1.61-2.87-1.61-5.38,0-3.58.89-8.25,2.69-13.99.72-2.87,1.08-5.2,1.08-7,0-3.58-1.26-5.38-3.77-5.38-3.23,0-24.76,8.07-64.59,24.22-39.83,16.15-61.01,24.22-63.51,24.22-7.53,0-25.75,2.34-54.63,7-28.89,4.67-45.3,7-49.25,7-29.07,0-55.44-23.5-79.12-70.51-20.81-41.26-31.22-78.94-31.22-113.03,0-10.04,5.2-24.94,15.61-44.68h31.22c26.55,111.24,63.87,166.86,111.95,166.86,40.55,0,89.35-20.99,146.4-62.98l95.81-70.51c23.32,8.26,34.98,24.41,34.98,48.44Z"/></svg>
