<?xml version="1.0" encoding="UTF-8"?><svg id="Layer_1" xmlns="http://www.w3.org/2000/svg" viewBox="0 0 4097.04 4072.83"><path d="M1503.04,2997.2l-16.95,23.86c-49.54-4.35-87.12-3.7-112.71,1.94l-5.3,1.17c-32.71,9.06-56.79,15.29-72.23,18.7l-52.96,11.67c-.89.2-15.26,8.46-43.13,24.78-18.69,5.51-45.63,16.54-80.86,33.09-53.4,39.08-78.59,92.75-75.57,161.03.88,27.12,3.51,50.59,7.89,70.45,1.17,5.3,2.55,10.54,4.16,15.74,14.32,48.21,22.46,76.73,24.41,85.55-9.57,4.89-25.31,11.13-47.23,18.74-17.61-21.11-27.44-36.3-29.48-45.56-1.07-4.85-2.74-17.67-5-38.46-3.15-20.59-5.5-34.42-7.06-41.48-8.17-37.07-5.9-104.43,6.82-202.1,5.97-25.37,17.72-47.64,35.26-66.77,38.21-40.81,117.98-74.59,239.35-101.34,121.9-26.4,196.71-26,224.46,1.2l6.13,27.8ZM1554.32,3291.2c-5.42,73.21-8.13,115.69-8.13,127.44-21.69,12.2-41.13,18.3-58.29,18.3-7.23-20.78-10.85-46.54-10.85-77.28,0-170.82,21.24-261.41,63.72-271.82,14.91,6.78,23.05,18.3,24.4,34.57-.45-5.87-1.13-9.04-2.03-9.49.45,4.98.68,11.08.68,18.3,0,32.09-3.17,85.41-9.49,159.97ZM1774.78,2298.02l-38.64,856.8c-2.27,1.81-3.39,7.23-3.39,16.27s1.12,21.47,3.39,37.28c4.97,42.48,16.71,122.92,35.25,241.31-.91,4.06-8.59,8.58-23.05,13.56-2.71.44-5.2.68-7.46.68-47.45,0-78.19-54.67-92.19-164.04-.46-2.26-.68-6.78-.68-13.56,0-21.24,1.12-64.84,3.39-130.83,3.16-84.95,7-173.75,11.52-266.39,1.36-35.25,6.55-100.77,15.59-196.58,8.58-87.67,12.88-152.74,12.88-195.22,0-129.69,8.58-220.3,25.76-271.82l10.17-.68h3.39c15.36,0,25.76,8.59,31.18,25.76,4.07,11.3,8.36,27.11,12.88,47.45ZM1924.37,3261.88c-5.42,73.21-8.13,115.69-8.13,127.44-21.69,12.2-41.13,18.3-58.29,18.3-7.23-20.78-10.85-46.54-10.85-77.28,0-170.82,21.24-261.41,63.72-271.82,14.91,6.78,23.05,18.3,24.4,34.57-.45-5.87-1.13-9.04-2.03-9.49.45,4.98.68,11.08.68,18.3,0,32.09-3.17,85.41-9.49,159.97ZM2720.84,3095.04c-103.49,0-192.51,17.18-267.07,51.52-18.08,8.13-29.15,19.66-33.22,34.57-.91,21.25-4.52,59.89-10.85,115.91-2.26,20.79-3.39,42.26-3.39,64.4,0,4.52,1.02,19.55,3.05,45.07,2.03,25.54,3.05,40.33,3.05,44.4,0,35.7-8.81,65.31-26.43,88.8-3.62-.9-13.56-4.74-29.83-11.52-17.62-45.64-26.43-98.73-26.43-159.29,0-14.91,2.48-44.74,7.46-89.48,4.51-43.83,6.78-73.43,6.78-88.8,0-13.56-4.75-23.73-14.23-30.5-8.13,3.17-37.06,7.23-86.76,12.2-8.59,1.81-34.35,5.88-77.28,12.2-7.69.91-21.69,2.49-42.02,4.74-4.52.46-15.59,7.69-33.22,21.69-4.52,4.07-6.78,12.88-6.78,26.44v4.75h-29.83c-6.78,0-20.91-9.38-42.37-28.13-21.47-18.75-32.2-30.84-32.2-36.26,0-28.02,49.71-48.8,149.13-62.36,121.56-16.71,194.09-31.4,217.59-44.06,13.56-8.13,28.47-97.38,44.74-267.75,8.13-84.05,24.85-191.83,50.16-323.33,2.25-11.29,5.87-28.69,10.85-52.2,1.8-4.97,17.62-14.68,47.45-29.15l11.52,83.37c-2.27,11.3-6.56,35.03-12.88,71.18l-28.47,174.21c-3.17,14.47-6.78,42.26-10.85,83.38l-11.52,241.99,273.85-2.71v44.74ZM3253.09,3072.33c0,4.98-2.94,17.86-8.81,38.64-6.33,21.69-9.49,33.67-9.49,35.93v4.74c0,11.76-.91,28.02-2.71,48.8-22.6,53.33-52.2,133.77-88.8,241.31-12.2,13.1-36.16,57.84-71.85,134.22.9-.46,1.36-.91,1.36-1.36v.68c0,1.36-12.88,36.83-38.64,106.42-14.01,37.5-33.22,85.85-57.62,145.06-3.17,15.36-8.13,41.35-14.91,77.95-.91,6.32-6.78,23.05-17.63,50.16-9.04,22.14-13.56,38.86-13.56,50.16,0,4.07.9,7.68,2.71,10.85-8.59,14.46-24.63,33.44-48.13,56.94h-29.83c-13.56-25.31-20.34-43.84-20.34-55.58,0-44.74,29.83-143.7,89.48-296.9,23.49-60.56,52.42-130.38,86.76-209.45,11.29-20.34,29.59-57.85,54.9-112.52,8.58-26.67,17.63-50.16,27.11-70.5,8.58-13.1,23.27-49.7,44.06-109.81-1.36-1.36-2.03-3.61-2.03-6.78,0-4.51,1.12-10.39,3.39-17.62.9-3.61,1.36-6.55,1.36-8.81,0-4.51-1.59-6.78-4.74-6.78-4.07,0-31.18,10.17-81.34,30.5-50.16,20.34-76.83,30.5-79.99,30.5-9.49,0-32.43,2.94-68.8,8.81-36.38,5.88-57.05,8.81-62.02,8.81-36.6,0-69.82-29.59-99.64-88.8-26.21-51.96-39.31-99.41-39.31-142.35,0-12.65,6.54-31.41,19.66-56.26h39.32c33.44,140.09,80.43,210.13,140.99,210.13,51.06,0,112.52-26.43,184.37-79.31l120.66-88.8c29.37,10.4,44.06,30.74,44.06,61.01Z"/></svg>
