<?xml version="1.0" encoding="UTF-8"?><svg id="Layer_1" xmlns="http://www.w3.org/2000/svg" viewBox="0 0 800 800"><defs><style>.cls-1{fill:#fff;}</style></defs><path class="cls-1" d="M0,754.47l213.33-213.33,37.72,37.72-213.33,213.33L0,754.47ZM445.53,640c162,0,293.33-131.33,293.33-293.33h53.33c0,191.46-155.21,346.67-346.67,346.67v-53.33ZM152.19,346.67c0,162,131.33,293.33,293.33,293.33v53.33c-191.46,0-346.67-155.21-346.67-346.67h53.33ZM445.53,53.33c-162,0-293.33,131.33-293.33,293.33h-53.33C98.86,155.21,254.06,0,445.53,0v53.33ZM445.53,0c191.46,0,346.67,155.21,346.67,346.67h-53.33c0-162-131.33-293.33-293.33-293.33V0Z"/><path class="cls-1" d="M254.3,492.1v-191.22l114.73-114.73,114.73,114.73v191.22h-229.47ZM292.55,453.86h57.37v-57.37h38.24v57.37h57.37v-137.2l-76.49-76.49-76.49,76.49v137.2ZM349.91,358.24v-38.24h38.24v38.24h-38.24ZM522.01,492.1v-207l-98.96-98.96h54.02l83.18,83.18v222.77h-38.24ZM598.5,492.1v-238.55l-67.41-67.41h54.02l51.63,51.63v254.33h-38.24ZM292.55,453.86h152.98-152.98Z"/></svg>